# xmcd
#
# Track frame offsets:
#	150
#	14612
#	27707
#	40765
#	53497
#	68780
#	81470
#	94310
#	107870
#	122437
#	133217
#	149937
#	160127
#	172825
#	185212
#	196952
#	205795
#	223252
#	235625
#	249675
#
# Disc length: 3576 seconds
#
# Revision: 1
# Processed by: cddbd v1.5.2PL0 Copyright (c) Steve Scherf et al.
# Submitted via: audiograbber 1.83.01
#
DISCID=310df614
DTITLE=Various Artist - MAGIC MOMENTS
DYEAR=1900
DGENRE=Easy Listening
TTITLE0=GENE ROCKWELL - CIAO
TTITLE1=PAMELA DEAN - GIRL WITHOUT LOVE
TTITLE2=BILLY FORREST - HALLO OPERATO
TTITLE3=JUNE MUSCAT - CHAPEL OF LOVE
TTITLE4=TOMMY DELL - ALWAYS ON MY MIND
TTITLE5=BARBARA RAY and LANCE JAMES - STAND BESIDE ME
TTITLE6=GERT POTGIETER - SWEETHEART
TTITLE7=LIONEL PETERSEN - I NEED A LITTLE LOVE
TTITLE8=PETER LOTIS and JUDY PAGE - GREEN GROW THE LILACS
TTITLE9=THE DEALIANS - WHEN LOVE COMES KNOCKING ON YOUR DOOR
TTITLE10=MARGARET SINGANA - I NEVER LOVED A MAN
TTITLE11=BOBBY ANGEL - I STILL LOVE YOU
TTITLE12=GE' KORSTEN - GARA MIA
TTITLE13=PETER and STEVE - ROSES ARE RED
TTITLE14=BILLY FORREST - I'M SO LONESOME
TTITLE15=FOUR JACKS AND A JILL - TIMOTHY
TTITLE16=JOHN EDMOND - GOODBYE IS THE SADDEST SONG
TTITLE17=JUDY PAGE - WINDHILLS OF YOUR MIND
TTITLE18=CLIVE RISCO - FACE OF AN ANGEL
TTITLE19=STACCATOS - CRY TO ME
EXTD=
EXTT0=
EXTT1=
EXTT2=
EXTT3=
EXTT4=
EXTT5=
EXTT6=
EXTT7=
EXTT8=
EXTT9=
EXTT10=
EXTT11=
EXTT12=
EXTT13=
EXTT14=
EXTT15=
EXTT16=
EXTT17=
EXTT18=
EXTT19=
PLAYORDER=
